<svg width="20" height="20" viewBox="0 0 24 24" fill="none" xmlns="http://www.w3.org/2000/svg">
    <path fill-rule="evenodd" clip-rule="evenodd" d="M7.5 3.78947C7.5 1.6966 9.51472 0 12 0C14.4853 0 16.5 1.69661 16.5 3.78947V4.42105C16.5 6.86273 14.1495 8.8421 11.25 8.8421H1.5C0.671573 8.8421 0 8.27657 0 7.57895C0 6.88132 0.671573 6.31579 1.5 6.31579H11.25C12.4926 6.31579 13.5 5.46749 13.5 4.42105V3.78947C13.5 3.09185 12.8284 2.52632 12 2.52632C11.1716 2.52632 10.5 3.09185 10.5 3.78947V4.13397C10.5 4.83159 9.82843 5.39713 9 5.39713C8.17157 5.39713 7.5 4.83159 7.5 4.13397V3.78947ZM13.5 19.5789C13.5 22.0206 15.8505 24 18.75 24C21.6495 24 24 22.0206 24 19.5789V18.9474C24 16.1569 21.3137 13.8947 18 13.8947H3C2.17157 13.8947 1.5 14.4603 1.5 15.1579C1.5 15.8555 2.17157 16.4211 3 16.4211H18C19.6569 16.4211 21 17.5521 21 18.9474V19.5789C21 20.6254 19.9926 21.4737 18.75 21.4737C17.5074 21.4737 16.5 20.6254 16.5 19.5789V18.9474C16.5 18.2497 15.8284 17.6842 15 17.6842C14.1716 17.6842 13.5 18.2497 13.5 18.9474V19.5789ZM4.5 10.1053C3.67157 10.1053 3 10.6708 3 11.3684C3 12.066 3.67157 12.6316 4.5 12.6316H19.5C20.3284 12.6316 21 12.066 21 11.3684C21 10.6708 20.3284 10.1053 19.5 10.1053H4.5Z" fill="#231815"/>
</svg>
